# xmcd
#
# Track frame offsets:
#	150
#	12530
#	21782
#	34962
#	51440
#	65430
#	80422
#	94187
#	107370
#	123052
#	136045
#	147995
#	161942
#	171895
#	189040
#	202047
#
# Disc length: 2845 seconds
#
# Revision: 1
# Processed by: cddbd v1.5.2PL0 Copyright (c) Steve Scherf et al.
# Submitted via: audiograbber 1.83.01
#
DISCID=d70b1b10
DTITLE=Stardust - Stardust 00
DYEAR=1995
DGENRE=
TTITLE0=You Can´t Take Texas Out Of Me -Buck Cody
TTITLE1=Lying Again -Barbara and Buster Doss
TTITLE2=To See My Grandma -Billy Grammer
TTITLE3=I´m Letting You Go -Billy Grammer
TTITLE4=The Only I Think Of You -Dwane Hall
TTITLE5=Small Town Blues -Danny Ross
TTITLE6=Soft Rain -Vancie Flowers
TTITLE7=She´s Gone Again -Dann Garner
TTITLE8=The Man I Love -Jerri Arnold
TTITLE9=Hoosy, I Don´t Love You Anymore -Jerri Arnold
TTITLE10=Two Little RTeasons To Say -Cliff Archer
TTITLE11=Where Were You -Rooster Quantrell
TTITLE12=Hands You Win, Tails I Loose -Rooster Quantrell
TTITLE13=Diamond Dreams -Stone Country -
TTITLE14=Double Life -Max Berry
TTITLE15=The Circle Never Ends -James Bryan
EXTD=
EXTT0=
EXTT1=
EXTT2=
EXTT3=
EXTT4=
EXTT5=
EXTT6=
EXTT7=
EXTT8=
EXTT9=
EXTT10=
EXTT11=
EXTT12=
EXTT13=
EXTT14=
EXTT15=
PLAYORDER=
